<svg width="34" height="34" viewBox="0 0 34 34" xmlns="http://www.w3.org/2000/svg"><defs><linearGradient x1="21.319%" y1="90.961%" x2="78.682%" y2="9.039%" id="a"><stop stop-color="#FFB900" offset="0%"/><stop stop-color="#9100EB" offset="100%"/></linearGradient></defs><g fill-rule="nonzero" fill="none"><circle fill="url(#a)" cx="17" cy="17" r="17"/><g transform="translate(6.375 6.375)" fill="#FFF"><path d="M15.495 21.25h-9.74A5.762 5.762 0 010 15.495v-9.74A5.762 5.762 0 015.755 0h9.74a5.762 5.762 0 015.755 5.755v9.74a5.761 5.761 0 01-5.755 5.755zM5.755 1.77a3.989 3.989 0 00-3.984 3.985v9.74a3.989 3.989 0 003.984 3.984h9.74a3.989 3.989 0 003.984-3.984v-9.74a3.989 3.989 0 00-3.984-3.984h-9.74z"/><path d="M10.625 15.938a5.319 5.319 0 01-5.313-5.313 5.318 5.318 0 015.313-5.313 5.318 5.318 0 015.313 5.313 5.319 5.319 0 01-5.313 5.313zm0-8.855a3.546 3.546 0 00-3.542 3.542 3.545 3.545 0 003.542 3.542 3.545 3.545 0 003.542-3.542 3.545 3.545 0 00-3.542-3.542z"/><circle cx="16.27" cy="4.98" r="1.217"/></g></g></svg>