<svg width="34" height="34" viewBox="0 0 34 34" xmlns="http://www.w3.org/2000/svg"><g fill-rule="nonzero" fill="none"><circle fill="#BD2026" cx="17" cy="17" r="17"/><path d="M14.082 28.77c.207-.793 1.06-4.037 1.06-4.037.553 1.055 2.17 1.951 3.893 1.951 5.121 0 8.812-4.713 8.812-10.564 0-5.613-4.579-9.811-10.47-9.811-7.33 0-11.224 4.92-11.224 10.277 0 2.491 1.326 5.594 3.447 6.581.323.15.495.084.569-.227.056-.237.343-1.39.471-1.926a.506.506 0 00-.117-.488c-.701-.85-1.264-2.416-1.264-3.875 0-3.747 2.836-7.373 7.67-7.373 4.174 0 7.095 2.844 7.095 6.911 0 4.595-2.32 7.778-5.34 7.778-1.667 0-2.915-1.378-2.515-3.067.479-2.02 1.406-4.2 1.406-5.656 0-1.306-.7-2.393-2.148-2.393-1.705 0-3.074 1.761-3.074 4.126 0 1.503.508 2.52.508 2.52s-1.683 7.117-1.99 8.443c-.343 1.467-.198 3.815-.06 4.872l.002.022c.377.147.758.286 1.148.406l.01-.016c.457-.701 1.728-2.977 2.11-4.454z" fill="#FFF"/></g></svg>