<svg width="34" height="34" viewBox="0 0 34 34" xmlns="http://www.w3.org/2000/svg"><g fill-rule="nonzero" fill="none"><circle fill="#55ACEE" cx="17" cy="17" r="17"/><path d="M27.89 10.675a8.699 8.699 0 01-2.504.687 4.373 4.373 0 001.917-2.412c-.842.5-1.775.862-2.768 1.058a4.36 4.36 0 00-7.429 3.976A12.378 12.378 0 018.12 9.429a4.358 4.358 0 001.35 5.82 4.339 4.339 0 01-1.975-.545v.055a4.362 4.362 0 003.496 4.274 4.367 4.367 0 01-1.969.075 4.364 4.364 0 004.073 3.028A8.748 8.748 0 017.681 24c-.352 0-.7-.02-1.04-.06a12.34 12.34 0 006.683 1.958c8.018 0 12.404-6.643 12.404-12.404 0-.189-.005-.377-.013-.564a8.835 8.835 0 002.176-2.256" fill="#FFF"/></g></svg>