<svg width="34" height="34" viewBox="0 0 34 34" xmlns="http://www.w3.org/2000/svg"><g fill-rule="nonzero" fill="none"><circle fill="#CC191E" cx="17" cy="17" r="17"/><path d="M27.413 12.751s-.208-1.464-.845-2.109c-.808-.846-1.714-.85-2.13-.9-2.972-.215-7.433-.215-7.433-.215h-.01s-4.461 0-7.434.215c-.416.05-1.321.053-2.13.9-.637.645-.844 2.11-.844 2.11s-.212 1.719-.212 3.439v1.612c0 1.72.212 3.44.212 3.44s.208 1.463.845 2.108c.808.847 1.87.82 2.343.909 1.7.163 7.225.214 7.225.214s4.465-.007 7.44-.222c.415-.05 1.32-.054 2.128-.9.638-.646.846-2.11.846-2.11s.211-1.72.211-3.439V16.19c0-1.72-.212-3.439-.212-3.439m-12.876 7.285v-6.53l6.278 3.276-6.278 3.254z" fill="#FFF"/></g></svg>